<?xml version="1.0" standalone="no"?>
<!DOCTYPE svg PUBLIC "-//W3C//DTD SVG 20010904//EN"
 "http://www.w3.org/TR/2001/REC-SVG-20010904/DTD/svg10.dtd">
<svg version="1.0" xmlns="http://www.w3.org/2000/svg"
 width="1000.000000pt" height="1000.000000pt" viewBox="0 0 1000.000000 1000.000000"
 preserveAspectRatio="xMidYMid meet">
<metadata>
Created by potrace 1.16, written by Peter Selinger 2001-2019
</metadata>
<g transform="translate(0.000000,1000.000000) scale(0.100000,-0.100000)"
fill="#000000" stroke="none">
<path d="M5045 9659 c-88 -4 -227 -19 -310 -34 -1066 -184 -2008 -659 -2726
-1375 -320 -319 -476 -543 -700 -1005 -222 -458 -363 -898 -454 -1415 -99
-567 -104 -1238 -14 -1725 217 -1167 934 -2192 2059 -2942 387 -259 742 -439
978 -499 727 -183 1473 -234 2162 -148 755 94 1521 385 2100 796 194 138 407
360 518 538 26 41 52 81 59 88 16 17 77 206 100 312 13 64 18 124 17 245 -1
193 -18 268 -95 423 -41 84 -67 121 -137 195 -99 105 -1304 1338 -1640 1679
l-225 227 20 24 c30 39 1278 1322 1659 1707 335 339 342 346 367 415 59 156
70 218 71 395 0 189 -15 272 -82 433 -79 192 -181 337 -371 528 -285 286 -751
581 -1224 776 -649 267 -1422 398 -2132 362z m620 -1814 c201 -27 388 -78 585
-162 104 -45 266 -128 274 -142 3 -4 -407 -432 -910 -951 -504 -519 -936 -971
-960 -1004 -74 -97 -121 -185 -155 -286 -26 -78 -33 -115 -36 -210 -8 -179 34
-330 137 -497 66 -107 183 -230 1179 -1233 l804 -810 -114 -54 c-520 -245
-1143 -317 -1704 -196 -232 51 -675 262 -984 470 -216 145 -481 387 -634 580
-300 377 -487 821 -553 1310 -26 190 -24 458 5 640 135 867 511 1523 1138
1986 248 185 587 353 892 443 124 37 405 98 531 116 131 18 366 18 505 0z"/>
</g>
</svg>
